<?xml version="1.0" encoding="utf-8"?>
<!-- Generator: Adobe Illustrator 21.0.0, SVG Export Plug-In . SVG Version: 6.00 Build 0)  -->
<svg version="1.1" id="Layer_1" xmlns="http://www.w3.org/2000/svg" xmlns:xlink="http://www.w3.org/1999/xlink" x="0px" y="0px"
	 viewBox="0 0 83.7 35.6" style="enable-background:new 0 0 83.7 35.6;" xml:space="preserve">
<style type="text/css">
	.st0{fill:#5E0D8B;enable-background:new    ;}
	.st1{fill-rule:evenodd;clip-rule:evenodd;fill:#5E0D8B;enable-background:new    ;}
	.st2{fill:#5E0D8B;}
</style>
<g>
	<path class="st0" d="M59.8,12.2h-8.9c0.1-1.6-0.2-2.7-1-3.4c-0.8-0.7-1.8-1-3.1-1c-1.7,0-3.2,0.5-4.4,1.5c-1.2,1-2.2,2.2-2.9,3.8
		c-0.8,1.6-1.3,3.3-1.7,5.3c-0.1,0.5-0.3,1.3-0.4,2.3c-0.1,1-0.1,2.1,0.1,3.3c0.2,1.1,0.6,2.1,1.4,2.9c0.8,0.8,2,1.2,3.6,1.3
		c1.5,0,2.7-0.3,3.6-0.9c0.9-0.6,1.5-1.2,1.9-1.9c0.4-0.7,0.7-1.3,0.8-1.7h9C57,26.1,56,28,54.6,29.5c-1.4,1.4-2.9,2.5-4.6,3.2
		c-1.7,0.7-3.3,1.1-4.9,1.4c-1.6,0.2-2.9,0.3-4,0.3c-1,0-2.2-0.1-3.6-0.3c-1.4-0.2-2.7-0.6-4-1.2c-1.3-0.6-2.4-1.5-3.4-2.7
		c-0.9-1.2-1.4-2.6-1.7-4c-0.3-1.4-0.4-2.8-0.3-4.2c0.1-1.4,0.3-2.6,0.5-3.7c0.4-2.2,1.2-4.3,2.2-6.3c1-2,2.5-3.9,4.3-5.6
		c2-1.8,4.1-3,6.2-3.7c2.2-0.7,4.4-1,6.7-0.9c5.1,0,8.6,1.2,10.6,3.8c0.6,0.9,1,1.8,1.2,2.7c0.2,0.9,0.2,1.7,0.2,2.4
		C59.9,11.2,59.9,11.8,59.8,12.2L59.8,12.2z"/>
	<polygon class="st0" points="6.2,33.7 11.5,8.6 2,8.6 3.3,2.4 31.4,2.4 30.1,8.6 20.3,8.6 15,33.7 6.2,33.7 	"/>
	<polygon class="st1" points="58.9,33.7 63,13.4 82.8,9.4 82.8,8.6 64.3,8.6 65.6,2.4 74.5,2.4 67.9,33.7 58.9,33.7 	"/>
</g>
<g>
	<path class="st2" d="M73.8,29.3v0.5h-1.2v4.1H72v-4.1h-1.2v-0.5H73.8z"/>
	<path class="st2" d="M75,33.9h-0.6v-4.7h1l1.2,3.9h0l1.2-3.9h1v4.7h-0.6v-4.1h0l-1.3,4.1h-0.6L75,29.8h0V33.9z"/>
</g>
</svg>
